<?xml version="1.0" standalone="no"?>
<!DOCTYPE svg PUBLIC "-//W3C//DTD SVG 20010904//EN"
 "http://www.w3.org/TR/2001/REC-SVG-20010904/DTD/svg10.dtd">
<svg version="1.0" xmlns="http://www.w3.org/2000/svg"
 width="200.000000pt" height="200.000000pt" viewBox="0 0 200.000000 200.000000"
 preserveAspectRatio="xMidYMid meet">
<metadata>
Created by potrace 1.14, written by Peter Selinger 2001-2017
</metadata>
<g transform="translate(0.000000,200.000000) scale(0.100000,-0.100000)"
fill="#000000" stroke="none">
<path d="M607 1636 c-97 -36 -163 -110 -195 -218 l-17 -58 -61 0 c-193 0 -301
-67 -312 -194 -8 -103 44 -157 191 -196 166 -43 190 -52 213 -75 70 -70 -15
-165 -147 -165 -83 1 -169 63 -169 123 0 14 -9 17 -55 17 l-56 0 7 -37 c16
-89 56 -146 123 -177 65 -30 235 -29 301 1 54 24 103 77 120 128 12 37 9 124
-5 157 -7 17 -5 17 31 2 48 -20 174 -23 227 -5 21 7 41 11 43 8 3 -3 12 -35
19 -71 37 -174 157 -270 314 -251 126 16 195 71 234 189 25 74 24 76 -37 76
l-54 0 -17 -50 c-51 -153 -247 -158 -310 -7 -47 114 -19 304 57 374 29 27 101
46 144 38 47 -8 90 -48 110 -100 l17 -45 54 0 55 0 -7 38 c-18 101 -77 170
-167 197 -68 20 -123 19 -196 -4 l-59 -18 -6 56 c-14 127 -68 211 -166 254
-59 26 -172 33 -224 13z m179 -107 c33 -15 49 -32 68 -72 14 -28 26 -61 26
-74 l0 -23 -180 0 -180 0 0 23 c1 30 33 98 56 119 58 52 139 62 210 27z m-396
-292 c0 -47 32 -144 61 -186 24 -34 26 -42 12 -37 -17 7 -96 29 -215 61 -100
27 -142 87 -96 138 29 33 73 45 166 46 69 1 72 0 72 -22z m538 -4 c-9 -10 -30
-46 -46 -79 -36 -71 -76 -109 -134 -125 -119 -32 -210 39 -233 179 l-7 42 218
0 c206 0 216 -1 202 -17z"/>
<path d="M1620 1219 c52 -28 149 -78 215 -111 66 -33 130 -69 143 -81 l22 -20
0 131 0 132 -237 0 -238 0 95 -51z"/>
<path d="M1520 985 c0 -74 2 -135 5 -135 3 0 65 30 137 66 l132 66 -134 69
c-74 38 -136 69 -137 69 -2 0 -3 -61 -3 -135z"/>
<path d="M1978 941 c-9 -9 -112 -65 -230 -126 l-213 -110 229 -3 c126 -1 231
-1 233 1 2 3 2 60 1 129 -3 116 -4 124 -20 109z"/>
<path d="M614 495 c0 -49 1 -71 3 -48 2 23 2 64 0 90 -2 26 -3 8 -3 -42z"/>
<path d="M1303 495 c1 -49 2 -68 4 -40 3 27 10 56 16 64 9 11 9 13 0 8 -8 -5
-13 3 -16 25 -2 18 -4 -7 -4 -57z"/>
<path d="M1654 495 c0 -49 1 -71 3 -48 2 23 2 64 0 90 -2 26 -3 8 -3 -42z"/>
<path d="M551 493 c0 -46 2 -83 7 -83 4 0 6 26 4 57 -5 101 -9 111 -11 26z"/>
<path d="M1020 497 c0 -42 3 -78 8 -80 8 -6 6 142 -2 151 -3 3 -6 -29 -6 -71z"/>
<path d="M57 520 c21 -24 19 -24 27 -4 3 8 2 12 -3 9 -5 -3 -12 -1 -16 5 -3 5
-10 10 -15 10 -6 0 -2 -9 7 -20z"/>
<path d="M113 529 c13 -7 17 -25 19 -67 l2 -57 3 53 c4 53 -7 82 -31 82 -6 0
-3 -5 7 -11z"/>
<path d="M186 518 c-20 -28 -20 -68 -1 -94 13 -17 13 -16 3 12 -21 59 17 122
48 79 8 -10 14 -14 14 -9 0 14 -22 34 -36 34 -7 0 -20 -10 -28 -22z"/>
<path d="M883 528 c11 -9 17 -32 20 -68 l3 -55 2 61 c2 48 -1 63 -14 68 -25
10 -29 7 -11 -6z"/>
<path d="M1353 529 c13 -7 17 -25 19 -67 l2 -57 3 53 c4 53 -7 82 -31 82 -6 0
-3 -5 7 -11z"/>
<path d="M1706 518 c-20 -29 -20 -69 0 -94 15 -18 15 -18 5 3 -17 34 -13 71 9
93 11 11 16 20 11 20 -6 0 -17 -10 -25 -22z"/>
<path d="M1820 525 c-6 -8 -10 -20 -7 -27 4 -8 6 -7 6 4 1 9 9 22 19 27 9 6
12 11 6 11 -6 0 -17 -7 -24 -15z"/>
<path d="M2 466 c2 -60 2 -60 5 -11 3 27 8 54 13 61 7 7 5 11 -5 11 -12 0 -15
-13 -13 -61z"/>
<path d="M292 466 c2 -60 2 -60 5 -11 3 27 8 54 13 61 7 7 5 11 -5 11 -12 0
-15 -13 -13 -61z"/>
<path d="M366 514 c-12 -31 -6 -82 12 -95 14 -11 15 -11 5 1 -7 8 -13 22 -13
32 0 14 8 18 35 18 30 0 35 3 35 24 0 14 -4 27 -9 30 -4 3 -6 -6 -3 -19 4 -22
1 -25 -28 -25 -29 0 -32 2 -26 25 7 28 2 34 -8 9z"/>
<path d="M671 514 c0 -11 3 -14 6 -6 3 7 2 16 -1 19 -3 4 -6 -2 -5 -13z"/>
<path d="M725 519 c-4 -6 -5 -12 -2 -15 2 -3 7 2 10 11 7 17 1 20 -8 4z"/>
<path d="M782 505 c0 -16 2 -22 5 -12 2 9 2 23 0 30 -3 6 -5 -1 -5 -18z"/>
<path d="M1086 514 c-14 -37 -3 -104 17 -104 7 0 7 4 -1 12 -7 7 -12 20 -12
30 0 14 8 18 35 18 37 0 46 18 25 50 -8 11 -9 8 -4 -12 6 -26 4 -28 -26 -28
-29 0 -32 2 -26 25 7 28 2 34 -8 9z"/>
<path d="M1196 514 c-14 -37 -4 -104 16 -104 6 0 5 6 -2 15 -8 10 -11 32 -8
60 6 47 4 55 -6 29z"/>
<path d="M1256 517 c3 -10 9 -15 12 -12 3 3 0 11 -7 18 -10 9 -11 8 -5 -6z"/>
<path d="M1423 470 c0 -36 2 -50 4 -32 2 17 2 47 0 65 -2 17 -4 3 -4 -33z"/>
<path d="M1536 514 c-14 -37 -4 -104 16 -104 6 0 5 6 -2 15 -8 10 -11 32 -8
60 6 47 4 55 -6 29z"/>
<path d="M1597 486 c4 -29 1 -51 -7 -61 -7 -9 -8 -15 -2 -15 21 0 31 81 13
109 -5 8 -7 -4 -4 -33z"/>
<path d="M1761 502 c8 -24 8 -40 0 -64 -9 -26 -9 -30 1 -20 16 16 16 88 0 104
-10 10 -10 6 -1 -20z"/>
<path d="M1871 508 c5 -10 12 -18 14 -18 2 0 3 8 2 18 0 10 -7 19 -13 19 -9 0
-10 -5 -3 -19z"/>
<path d="M1921 514 c0 -11 3 -14 6 -6 3 7 2 16 -1 19 -3 4 -6 -2 -5 -13z"/>
<path d="M1981 514 c0 -11 3 -14 6 -6 3 7 2 16 -1 19 -3 4 -6 -2 -5 -13z"/>
<path d="M243 450 c-5 -22 -7 -37 -2 -35 9 6 23 64 17 70 -2 3 -9 -13 -15 -35z"/>
<path d="M1931 474 c0 -11 3 -14 6 -6 3 7 2 16 -1 19 -3 4 -6 -2 -5 -13z"/>
<path d="M1971 474 c0 -11 3 -14 6 -6 3 7 2 16 -1 19 -3 4 -6 -2 -5 -13z"/>
<path d="M842 455 c0 -16 2 -22 5 -12 2 9 2 23 0 30 -3 6 -5 -1 -5 -18z"/>
<path d="M727 463 c-9 -9 -9 -53 1 -53 4 0 7 14 7 30 0 17 0 30 -1 30 0 0 -4
-3 -7 -7z"/>
<path d="M422 430 c-7 -11 -8 -20 -3 -20 9 0 24 30 18 36 -1 2 -8 -6 -15 -16z"/>
<path d="M1141 427 c-13 -21 -12 -21 5 -5 10 10 16 20 13 22 -3 3 -11 -5 -18
-17z"/>
<path d="M1251 427 c-13 -21 -12 -21 5 -5 10 10 16 20 13 22 -3 3 -11 -5 -18
-17z"/>
<path d="M1813 436 c1 -11 9 -21 17 -23 10 -3 11 -2 4 4 -6 4 -14 15 -17 23
-5 11 -6 9 -4 -4z"/>
<path d="M1870 441 c0 -6 5 -13 10 -16 6 -3 10 1 10 9 0 9 -4 16 -10 16 -5 0
-10 -4 -10 -9z"/>
<path d="M1945 409 l0 -41 12 28 c15 35 18 67 4 45 -6 -9 -10 -10 -13 -1 -2 6
-3 -8 -3 -31z"/>
<path d="M780 431 c0 -6 4 -13 10 -16 6 -3 7 1 4 9 -7 18 -14 21 -14 7z"/>
<path d="M1810 380 c0 -9 39 -25 45 -18 2 2 -7 8 -21 15 -13 6 -24 7 -24 3z"/>
</g>
</svg>
